<?xml version="1.0" encoding="UTF-8" standalone="no"?>
<svg xmlns="http://www.w3.org/2000/svg" xmlns:xlink="http://www.w3.org/1999/xlink"
   version="1.1" width="450" height="300" viewBox="0 0 120 80">
  <defs>
    <linearGradient id="shade" x1="40%" y1="100%" x2="70%" y2="0%" gradientUnits="objectBoundingBox">
      <stop stop-color="black" stop-opacity=".1" offset="0" />
      <stop stop-color="white" stop-opacity=".2" offset="1" />
    </linearGradient>
  </defs>
  <use xlink:href="#paper" transform="translate(2,2)" opacity=".4"/>
  <g id="paper">
    <path fill="#4fc3f7" d="m 4,7 v 64 a 3,3 0 0 0 3,3 h 104 a 3,3 0 0 0 3,-3 v -64 a 3,3 0 0 0 -3,-3 h -104 a 3,3 0 0 0 -3,3 z"/>
    <path stroke="#0288d1" stroke-width="3" fill="url(#shade)" d="m 4,7 v 64 a 3,3 0 0 0 3,3 h 104 a 3,3 0 0 0 3,-3 v -64 a 3,3 0 0 0 -3,-3 h -104 a 3,3 0 0 0 -3,3 z"/>
  </g>
  <text x="15" y="28" fill="white" font-family="Source Sans Pro, sans-serif" font-weight="bold" font-size="25">• m</text>
</svg>
